
<svg xmlns:xlink="http://www.w3.org/1999/xlink" xmlns="http://www.w3.org/2000/svg" baseProfile="tiny" id="Layer_1" xmlns="http://www.w3.org/2000/svg" xmlns:xlink="http://www.w3.org/1999/xlink"
	 x="0px" y="0px" viewBox="-150 -12.5 400 125" xml:space="preserve">
<path fill="#1D1D1D" d="M-66.4,38.8v31.8c0,0.8-0.6,1.4-1.4,1.4H-148c-0.8,0-1.4-0.6-1.4-1.4V-9.6c0-0.8,0.6-1.4,1.4-1.4h31.8V5.6
	h-16.6v49.8H-83V38.8H-66.4z"/>
<path fill="#4AC2F1" d="M-66.4,38.8h-48.4c-0.8,0-1.4-0.6-1.4-1.4V-11c0.4,0,0.7,0.2,1,0.4L-100,4.6c0.2,0.2,0.4,0.6,0.4,1v16.6H-83
	c0.4,0,0.7,0.2,1,0.4l15.2,15.2C-66.6,38-66.4,38.4-66.4,38.8"/>
<path fill="#1D1D1D" d="M-20.2,34.9v-5.4h-6.4c-2.7,0-4.9,2.5-4.9,5.7v18.2c0,6.5,4.9,11.6,11,11.6h12.3v6.9h-17
	c-10.2,0-18.5-8.3-18.5-18.5V34.9c0-6.9,5.6-12.4,12.4-12.4H-17c4.9,0,9,4,9,9v3.4L-20.2,34.9L-20.2,34.9z"/>
<path fill="#1D1D1D" d="M21.5,71.9H13c-6.9,0-12.4-5.5-12.4-12.4V34.9h11.2v24.7c0,3.1,2.1,5.4,4.6,5.4h1.5c2.5,0,4.6-2.3,4.6-5.4
	V34.9h11.2v24.7C33.9,66.5,28.4,71.9,21.5,71.9"/>
<path fill="#1D1D1D" d="M63.2,47.2c0-3.1-2.1-5.4-4.6-5.4h-6.2V65h6.2c2.5,0,4.6-2.2,4.6-5.4V47.2z M62.1,71.9H41.2V22.5h11.2v12.4
	h9.7c6.9,0,12.4,5.5,12.4,12.4v12.4C74.4,66.5,68.9,71.9,62.1,71.9"/>
<path fill="#1D1D1D" d="M104.5,47.2c0-3.1-2.1-5.4-4.6-5.4h-2.3c-2.5,0-4.6,2.3-4.6,5.4v2.3h11.6L104.5,47.2L104.5,47.2z M92.9,56.5
	v3.1c0,3.2,2.1,5.4,4.6,5.4h16.1v6.9H94.1c-6.9,0-12.4-5.5-12.4-12.4V47.2c0-6.9,5.5-12.4,12.4-12.4h9.3c6.9,0,12.4,5.5,12.4,12.4
	v9.3H92.9z"/>
<polygon fill="#4AC2F1" points="124.2,71.9 124.2,22.5 136.3,22.5 136.3,65 149.7,65 149.7,71.9 "/>
<path fill="#4AC2F1" d="M156.2,34.9h11.2v37.1h-11.2V34.9z M156.2,22.5h11.2v10h-11.2V22.5z"/>
<path fill="#4AC2F1" d="M197.3,71.9V47.2c0-3.1-2.1-5.4-4.6-5.4h-6.2v30.1h-11.2V34.9h20.9c6.9,0,12.4,5.5,12.4,12.4v24.7H197.3z"/>
<path fill="#4AC2F1" d="M238.2,47.2c0-3.1-2.1-5.4-4.6-5.4h-2.3c-2.5,0-4.6,2.3-4.6,5.4v2.3h11.6C238.2,49.5,238.2,47.2,238.2,47.2z
	 M226.6,56.5v3.1c0,3.2,2.1,5.4,4.6,5.4h16.1v6.9h-19.6c-6.9,0-12.4-5.5-12.4-12.4V47.2c0-6.9,5.5-12.4,12.4-12.4h9.3
	c6.9,0,12.4,5.5,12.4,12.4v9.3H226.6z"/>
<polygon fill="#ABA8A8" points="-125.3,90.1 -134.9,104.5 -144.5,90.1 -147.8,90.1 -147.8,106.5 -145.7,106.5 -145.7,91.5 
	-135.8,106.5 -133.8,106.5 -124,91.7 -124,106.5 -122,106.5 -122,90.1 "/>
<path fill="#ABA8A8" d="M-106.6,105.1c0.9,0,1.7,0,2.3-0.1c0.6-0.1,1.1-0.2,1.5-0.4c0.4-0.2,0.6-0.4,0.8-0.6
	c0.2-0.2,0.2-0.5,0.2-0.9c0-0.3-0.1-0.6-0.3-0.9c-0.2-0.2-0.5-0.4-0.9-0.6c-0.4-0.2-1-0.2-1.7-0.3c-0.7-0.1-1.6-0.1-2.6-0.1
	c-1,0-1.9,0-2.5,0.1c-0.6,0-1.1,0.1-1.5,0.2c-0.3,0.1-0.6,0.3-0.7,0.6c-0.1,0.2-0.2,0.6-0.2,1c0,0.4,0.1,0.8,0.2,1
	c0.1,0.3,0.4,0.5,0.8,0.6c0.4,0.1,0.9,0.2,1.7,0.3C-108.8,105.1-107.8,105.1-106.6,105.1 M-101.9,104.8c0,0.1-0.2,0.3-0.5,0.6
	c-0.2,0.3-0.5,0.5-0.9,0.7c-0.3,0.2-0.8,0.3-1.4,0.5c-0.6,0.1-1.4,0.2-2.3,0.2c-1.3,0-2.4-0.1-3.3-0.2s-1.7-0.3-2.2-0.6
	c-0.6-0.3-1-0.6-1.3-1.1c-0.3-0.4-0.4-0.9-0.4-1.5c0-0.6,0.1-1.1,0.2-1.6c0.1-0.4,0.4-0.8,0.6-1.1c0.3-0.3,0.6-0.5,1-0.7
	c0.4-0.2,0.9-0.3,1.4-0.4c0.5-0.1,1.1-0.1,1.7-0.2c0.6,0,1.3,0,1.9,0c1,0,1.8,0,2.4,0.1c0.7,0.1,1.2,0.2,1.6,0.3
	c0.4,0.1,0.7,0.3,0.9,0.4c0.2,0.1,0.4,0.2,0.5,0.4c0-0.8,0-1.5-0.1-2c-0.1-0.6-0.2-1-0.3-1.4c-0.2-0.4-0.3-0.7-0.6-0.9
	c-0.2-0.2-0.5-0.4-0.9-0.5c-0.3-0.1-0.7-0.2-1.2-0.2s-1-0.1-1.6-0.1c-0.9,0-1.7,0-2.4,0.1c-0.6,0.1-1.1,0.1-1.5,0.3
	c-0.4,0.2-0.6,0.3-0.8,0.6c-0.1,0.2-0.2,0.5-0.2,0.9h-2.1c0-0.7,0.1-1.2,0.3-1.6c0.2-0.5,0.6-0.8,1.1-1.1c0.5-0.3,1.2-0.5,2.1-0.6
	c0.9-0.1,2-0.2,3.2-0.2c1.3,0,2.3,0.1,3.2,0.3c0.9,0.2,1.6,0.6,2.1,1.1c0.5,0.5,0.9,1.2,1.2,2.1c0.2,0.9,0.4,2,0.4,3.3v5.8h-2V104.8
	z"/>
<path fill="#ABA8A8" d="M-82.1,98.2c0-0.5,0-0.9-0.1-1.3c-0.1-0.3-0.2-0.6-0.5-0.8c-0.3-0.2-0.7-0.3-1.2-0.4
	c-0.5-0.1-1.3-0.1-2.2-0.1c-0.9,0-1.7,0.1-2.2,0.2c-0.6,0.2-1,0.4-1.4,0.7c-0.3,0.3-0.6,0.7-0.7,1.1c-0.1,0.4-0.2,0.9-0.2,1.3v7.6
	h-2V94.2h2v2c0.1-0.2,0.2-0.5,0.4-0.7c0.2-0.3,0.5-0.5,0.9-0.7c0.4-0.2,0.9-0.4,1.5-0.6c0.6-0.2,1.4-0.2,2.3-0.2
	c1.1,0,2,0.1,2.6,0.3c0.7,0.2,1.2,0.5,1.6,0.8c0.4,0.4,0.6,0.8,0.8,1.4c0.1,0.5,0.2,1.2,0.2,1.9L-82.1,98.2L-82.1,98.2z"/>
<polygon fill="#ABA8A8" points="-74.6,90.1 -72.6,90.1 -72.6,99.1 -71.9,99.1 -64.3,94.2 -61.3,94.2 -70,99.9 -60.9,106.5 
	-64,106.5 -71.9,100.6 -72.6,100.6 -72.6,106.5 -74.6,106.5 "/>
<path fill="#ABA8A8" d="M-49,95.6c-0.7,0-1.3,0-1.8,0c-0.5,0-1,0.1-1.4,0.2c-0.4,0.1-0.7,0.2-1,0.4c-0.3,0.2-0.5,0.4-0.7,0.6
	c-0.2,0.2-0.3,0.6-0.4,1.1c-0.1,0.4-0.1,1-0.1,1.6h10.3c0-0.8-0.1-1.5-0.3-2c-0.2-0.5-0.5-0.9-0.8-1.2c-0.4-0.3-0.9-0.5-1.5-0.6
	C-47.4,95.6-48.2,95.6-49,95.6 M-49,106.8c-1.4,0-2.5-0.1-3.5-0.3c-1-0.2-1.7-0.5-2.3-1c-0.6-0.5-1-1.1-1.3-1.9
	c-0.3-0.8-0.4-1.8-0.4-2.9c0-1.4,0.1-2.5,0.4-3.3c0.3-0.9,0.7-1.6,1.3-2.1c0.6-0.5,1.4-0.9,2.3-1.1c1-0.2,2.1-0.3,3.5-0.3
	c1,0,1.8,0.1,2.5,0.2c0.7,0.1,1.3,0.3,1.8,0.6c0.5,0.3,0.9,0.6,1.2,1c0.3,0.4,0.6,0.8,0.7,1.2c0.2,0.4,0.3,0.9,0.4,1.5
	c0.1,0.6,0.1,1.2,0.1,1.8l-0.2,0.7h-12.1c0,0.9,0.1,1.7,0.3,2.3c0.2,0.6,0.5,1,0.9,1.3c0.4,0.2,1,0.4,1.7,0.5
	c0.7,0.1,1.6,0.1,2.6,0.1c0.9,0,1.7,0,2.3-0.1c0.6-0.1,1.1-0.2,1.5-0.3c0.4-0.2,0.6-0.3,0.8-0.6c0.2-0.2,0.2-0.6,0.2-1h2
	c0,0.7-0.1,1.2-0.3,1.7c-0.2,0.5-0.6,0.8-1.1,1.1c-0.5,0.3-1.2,0.5-2.1,0.6C-46.6,106.7-47.7,106.8-49,106.8"/>
<path fill="#ABA8A8" d="M-23.1,101.1c0,1.1-0.1,1.9-0.2,2.6c-0.2,0.7-0.5,1.3-0.9,1.7c-0.4,0.4-0.9,0.7-1.6,0.9
	c-0.7,0.2-1.5,0.3-2.4,0.3c-0.9,0-1.7-0.1-2.4-0.2c-0.6-0.2-1.1-0.4-1.5-0.7c-0.4-0.3-0.7-0.8-0.9-1.4c-0.2-0.6-0.2-1.3-0.2-2.1
	v-6.2h-2.5v-1.7h2.5v-3.3h2v3.3h7.7v1.7h-7.7v6.2c0,0.7,0.1,1.2,0.2,1.6c0.1,0.4,0.3,0.7,0.5,0.8s0.5,0.3,0.9,0.3c0.4,0,0.8,0,1.4,0
	c0.4,0,0.8,0,1.1,0c0.3,0,0.6-0.1,0.9-0.1c0.3-0.1,0.5-0.2,0.7-0.3c0.2-0.2,0.3-0.4,0.4-0.7c0.1-0.3,0.2-0.6,0.2-1.1
	c0-0.4,0.1-1,0.1-1.6H-23.1z"/>
<path fill="#ABA8A8" d="M-15.2,106.5h2V94.2h-2V106.5z M-15.2,92.1h2v-2h-2V92.1z"/>
<path fill="#ABA8A8" d="M6.9,106.5v-6.8c0-0.8-0.1-1.4-0.2-1.9c-0.1-0.5-0.3-1-0.7-1.3c-0.3-0.3-0.8-0.5-1.5-0.7s-1.5-0.2-2.5-0.2
	c-1.1,0-2,0.1-2.7,0.2c-0.7,0.2-1.3,0.4-1.7,0.7c-0.4,0.3-0.7,0.7-0.8,1.1C-3.3,98-3.3,98.5-3.3,99v7.5h-2.1V94.2h2v2
	c0.2-0.3,0.4-0.7,0.7-0.9c0.3-0.2,0.6-0.5,0.9-0.7c0.4-0.2,0.7-0.3,1.1-0.4c0.4-0.1,0.8-0.2,1.2-0.3c0.4,0,0.8-0.1,1.2-0.1
	c0.4,0,0.7,0,1,0c0.9,0,1.7,0.1,2.4,0.2c0.7,0.1,1.2,0.3,1.7,0.5C7.3,94.7,7.7,95,8,95.4c0.3,0.3,0.5,0.7,0.7,1.1
	c0.2,0.4,0.2,0.9,0.3,1.4S9,99,9,99.7l0,6.8H6.9z"/>
<path fill="#ABA8A8" d="M23.3,95.6c-0.8,0-1.5,0-2.1,0.1s-1.1,0.1-1.5,0.3c-0.4,0.1-0.7,0.3-1,0.5c-0.2,0.2-0.4,0.5-0.6,0.9
	c-0.1,0.4-0.2,0.8-0.3,1.3c0,0.5-0.1,1.1-0.1,1.8c0,0.7,0,1.3,0.1,1.8c0.1,0.5,0.1,0.9,0.3,1.3c0.1,0.3,0.3,0.7,0.6,0.9
	c0.2,0.2,0.6,0.4,1,0.5c0.4,0.1,0.9,0.2,1.5,0.3c0.6,0,1.3,0.1,2.1,0.1c0.7,0,1.3,0,1.8,0c0.5,0,1-0.1,1.4-0.2
	c0.4-0.1,0.7-0.3,1-0.5c0.3-0.2,0.5-0.5,0.7-0.8c0.2-0.4,0.3-0.8,0.4-1.3c0.1-0.5,0.1-1.1,0.1-1.9c0-0.7,0-1.4-0.1-1.9
	c-0.1-0.5-0.2-1-0.4-1.3c-0.2-0.3-0.4-0.6-0.7-0.8c-0.3-0.2-0.6-0.4-1-0.5c-0.4-0.1-0.9-0.2-1.4-0.2C24.6,95.6,24,95.6,23.3,95.6
	 M30.9,104.8c0,1.2-0.1,2.2-0.4,3c-0.3,0.8-0.7,1.4-1.3,1.9c-0.6,0.5-1.4,0.8-2.3,1c-1,0.2-2.1,0.3-3.5,0.3c-1.3,0-2.4-0.1-3.2-0.2
	c-0.9-0.1-1.6-0.3-2.1-0.5c-0.5-0.3-0.9-0.6-1.1-1c-0.2-0.4-0.3-0.9-0.3-1.4h2c0,0.3,0.1,0.5,0.2,0.7c0.2,0.2,0.4,0.3,0.8,0.4
	c0.4,0.1,0.9,0.2,1.5,0.2c0.6,0,1.4,0.1,2.3,0.1c1,0,1.9,0,2.6-0.1c0.7-0.1,1.3-0.2,1.7-0.5c0.4-0.3,0.7-0.7,0.9-1.3
	c0.2-0.6,0.3-1.3,0.3-2.3c-0.1,0.2-0.3,0.4-0.5,0.6c-0.2,0.2-0.5,0.4-1,0.6s-1,0.3-1.6,0.4c-0.7,0.1-1.5,0.2-2.4,0.2
	c-1.4,0-2.5-0.1-3.5-0.3c-0.9-0.2-1.7-0.5-2.3-1c-0.6-0.5-1.1-1.1-1.3-2c-0.3-0.8-0.4-1.9-0.4-3.1c0-1.3,0.1-2.4,0.4-3.2
	c0.3-0.8,0.7-1.5,1.3-2c0.6-0.5,1.4-0.8,2.3-1c1-0.2,2.1-0.3,3.5-0.3c1,0,1.8,0.1,2.4,0.2c0.7,0.1,1.2,0.2,1.6,0.4
	c0.4,0.2,0.7,0.3,1,0.5c0.2,0.2,0.4,0.3,0.5,0.5v-1.1h2.1L30.9,104.8L30.9,104.8z"/>
<polygon fill="#ABA8A8" points="43.8,106.5 43.8,90.1 60.2,90.1 60.2,91.8 45.8,91.8 45.8,97.3 59.5,97.3 59.5,99 45.8,99 
	45.8,104.8 60.2,104.8 60.2,106.5 "/>
<path fill="#ABA8A8" d="M79,106.5v-6.8c0-0.8-0.1-1.4-0.2-1.9c-0.1-0.5-0.3-1-0.7-1.3c-0.3-0.3-0.8-0.6-1.5-0.7s-1.5-0.2-2.5-0.2
	c-1.1,0-2,0.1-2.7,0.2c-0.7,0.2-1.3,0.4-1.7,0.7c-0.4,0.3-0.7,0.7-0.8,1.1c-0.2,0.4-0.2,0.9-0.2,1.4v7.5h-2V94.2h2v2
	c0.2-0.3,0.4-0.7,0.7-0.9c0.3-0.2,0.6-0.5,0.9-0.7s0.7-0.3,1.1-0.4c0.4-0.1,0.8-0.2,1.2-0.3c0.4-0.1,0.8-0.1,1.2-0.1
	c0.4,0,0.7,0,1,0c0.9,0,1.7,0.1,2.4,0.2c0.7,0.1,1.2,0.3,1.7,0.5c0.5,0.2,0.8,0.5,1.1,0.8c0.3,0.3,0.5,0.7,0.6,1.1
	c0.2,0.4,0.3,0.9,0.3,1.5C81,98.5,81,99,81,99.7l0,6.9H79z"/>
<path fill="#ABA8A8" d="M95.3,95.6c-0.8,0-1.5,0-2.1,0.1c-0.6,0.1-1.1,0.1-1.5,0.3c-0.4,0.1-0.7,0.3-1,0.5c-0.2,0.2-0.4,0.5-0.6,0.9
	c-0.1,0.4-0.2,0.8-0.3,1.3c-0.1,0.5-0.1,1.1-0.1,1.8c0,0.7,0,1.3,0.1,1.8c0.1,0.5,0.1,0.9,0.3,1.3c0.2,0.4,0.3,0.7,0.6,0.9
	c0.2,0.2,0.6,0.4,1,0.5c0.4,0.1,0.9,0.2,1.5,0.3c0.6,0,1.3,0.1,2.1,0.1c0.7,0,1.3,0,1.8,0c0.5,0,1-0.1,1.4-0.2
	c0.4-0.1,0.8-0.3,1-0.5c0.3-0.2,0.5-0.5,0.7-0.8c0.2-0.4,0.3-0.8,0.4-1.3c0.1-0.5,0.1-1.1,0.1-1.9c0-0.7,0-1.4-0.1-1.9
	c-0.1-0.5-0.2-1-0.4-1.3c-0.2-0.3-0.4-0.6-0.7-0.8c-0.3-0.2-0.6-0.4-1-0.5s-0.9-0.2-1.4-0.2C96.6,95.6,96,95.6,95.3,95.6
	 M102.9,104.8c0,1.2-0.1,2.2-0.4,3c-0.3,0.8-0.7,1.4-1.3,1.9c-0.6,0.5-1.4,0.8-2.3,1c-1,0.2-2.1,0.3-3.5,0.3c-1.3,0-2.4-0.1-3.2-0.2
	c-0.9-0.1-1.6-0.3-2.1-0.5c-0.5-0.3-0.9-0.6-1.1-1c-0.2-0.4-0.4-0.9-0.4-1.4h2.1c0,0.3,0.1,0.5,0.2,0.7c0.1,0.2,0.4,0.3,0.8,0.4
	s0.9,0.2,1.5,0.2c0.6,0,1.4,0.1,2.3,0.1c1,0,1.9,0,2.6-0.1c0.7-0.1,1.3-0.2,1.7-0.5c0.4-0.3,0.7-0.7,0.9-1.3
	c0.2-0.6,0.3-1.3,0.3-2.3c-0.1,0.2-0.3,0.4-0.5,0.6c-0.2,0.2-0.5,0.4-1,0.6c-0.4,0.2-1,0.3-1.6,0.4c-0.7,0.1-1.5,0.2-2.4,0.2
	c-1.4,0-2.5-0.1-3.5-0.3c-1-0.2-1.7-0.6-2.3-1.1c-0.6-0.5-1-1.1-1.3-2c-0.3-0.8-0.4-1.9-0.4-3.1c0-1.3,0.1-2.4,0.4-3.2
	c0.3-0.8,0.7-1.5,1.3-2c0.6-0.5,1.4-0.8,2.3-1s2.1-0.3,3.5-0.3c1,0,1.8,0.1,2.4,0.2c0.7,0.1,1.2,0.2,1.6,0.4c0.4,0.2,0.7,0.3,1,0.5
	c0.2,0.2,0.4,0.3,0.5,0.5v-1.1h2.1L102.9,104.8L102.9,104.8z"/>
<path fill="#ABA8A8" d="M110.7,106.5h2V94.2h-2V106.5z M110.7,92.1h2v-2h-2V92.1z"/>
<path fill="#ABA8A8" d="M132.8,106.5v-6.8c0-0.8-0.1-1.4-0.2-1.9c-0.1-0.5-0.3-1-0.7-1.3c-0.3-0.3-0.8-0.6-1.5-0.7s-1.5-0.2-2.5-0.2
	c-1.1,0-2,0.1-2.7,0.2c-0.7,0.2-1.3,0.4-1.7,0.7c-0.4,0.3-0.7,0.7-0.8,1.1c-0.2,0.4-0.2,0.9-0.2,1.4v7.5h-2V94.2h2v2
	c0.2-0.3,0.4-0.7,0.7-0.9c0.3-0.2,0.6-0.5,0.9-0.7c0.4-0.2,0.7-0.3,1.1-0.4c0.4-0.1,0.8-0.2,1.2-0.3c0.4-0.1,0.8-0.1,1.2-0.1
	c0.4,0,0.7,0,1.1,0c0.9,0,1.7,0.1,2.4,0.2c0.7,0.1,1.2,0.3,1.7,0.5c0.5,0.2,0.8,0.5,1.1,0.8c0.3,0.3,0.5,0.7,0.7,1.1
	c0.2,0.4,0.2,0.9,0.3,1.5c0.1,0.5,0.1,1.1,0.1,1.7l0,6.8L132.8,106.5L132.8,106.5z"/>
<path fill="#ABA8A8" d="M149.2,95.6c-0.7,0-1.3,0-1.8,0c-0.5,0-1,0.1-1.4,0.2c-0.4,0.1-0.7,0.2-1,0.4c-0.3,0.2-0.5,0.4-0.7,0.6
	c-0.2,0.2-0.3,0.6-0.4,1.1c-0.1,0.4-0.1,1-0.1,1.6H154c0-0.8-0.1-1.5-0.3-2c-0.2-0.5-0.5-0.9-0.8-1.2c-0.4-0.3-0.9-0.5-1.5-0.6
	C150.8,95.6,150.1,95.6,149.2,95.6 M149.2,106.8c-1.4,0-2.5-0.1-3.5-0.3c-1-0.2-1.7-0.5-2.3-1c-0.6-0.5-1-1.1-1.3-1.9
	c-0.3-0.8-0.4-1.8-0.4-2.9c0-1.4,0.1-2.5,0.4-3.3c0.3-0.9,0.7-1.6,1.3-2.1c0.6-0.5,1.4-0.9,2.3-1.1c1-0.2,2.1-0.3,3.5-0.3
	c1,0,1.8,0.1,2.5,0.2c0.7,0.1,1.3,0.3,1.8,0.6c0.5,0.3,0.9,0.6,1.2,1c0.3,0.4,0.6,0.8,0.7,1.2c0.2,0.4,0.3,0.9,0.4,1.5
	c0.1,0.6,0.1,1.2,0.1,1.8l-0.2,0.7h-12.2c0,0.9,0.1,1.7,0.3,2.3c0.2,0.6,0.5,1,0.9,1.3c0.4,0.3,1,0.4,1.7,0.5
	c0.7,0.1,1.6,0.1,2.6,0.1c0.9,0,1.7,0,2.3-0.1c0.6-0.1,1.1-0.2,1.5-0.3c0.4-0.2,0.6-0.3,0.8-0.6c0.2-0.2,0.2-0.6,0.2-1h2
	c0,0.7-0.1,1.2-0.3,1.7c-0.2,0.5-0.6,0.9-1.1,1.1c-0.5,0.3-1.2,0.5-2.1,0.6C151.6,106.7,150.5,106.8,149.2,106.8"/>
<path fill="#ABA8A8" d="M170.4,95.6c-0.7,0-1.3,0-1.8,0c-0.5,0-1,0.1-1.4,0.2c-0.4,0.1-0.7,0.2-1,0.4c-0.3,0.2-0.5,0.4-0.7,0.6
	c-0.2,0.2-0.3,0.6-0.4,1.1c-0.1,0.4-0.1,1-0.1,1.6h10.3c0-0.8-0.1-1.5-0.3-2c-0.2-0.5-0.5-0.9-0.8-1.2c-0.4-0.3-0.9-0.5-1.5-0.6
	C172,95.6,171.2,95.6,170.4,95.6 M170.4,106.8c-1.4,0-2.5-0.1-3.5-0.3c-1-0.2-1.7-0.5-2.3-1c-0.6-0.5-1-1.1-1.3-1.9
	c-0.3-0.8-0.4-1.8-0.4-2.9c0-1.4,0.1-2.5,0.4-3.3c0.3-0.9,0.7-1.6,1.3-2.1c0.6-0.5,1.4-0.9,2.3-1.1c1-0.2,2.1-0.3,3.5-0.3
	c1,0,1.8,0.1,2.5,0.2c0.7,0.1,1.3,0.3,1.8,0.6c0.5,0.3,0.9,0.6,1.2,1c0.3,0.4,0.6,0.8,0.7,1.2c0.2,0.4,0.3,0.9,0.4,1.5
	c0.1,0.6,0.1,1.2,0.1,1.8l-0.2,0.7h-12.1c0,0.9,0.1,1.7,0.3,2.3c0.2,0.6,0.5,1,0.9,1.3c0.4,0.3,1,0.4,1.7,0.5
	c0.7,0.1,1.5,0.1,2.6,0.1c0.9,0,1.7,0,2.3-0.1c0.6-0.1,1.1-0.2,1.5-0.3c0.4-0.2,0.6-0.3,0.8-0.6c0.2-0.2,0.2-0.6,0.2-1h2.1
	c0,0.7-0.1,1.2-0.3,1.7c-0.2,0.5-0.6,0.9-1.1,1.1c-0.5,0.3-1.2,0.5-2.1,0.6C172.8,106.7,171.7,106.8,170.4,106.8"/>
<path fill="#ABA8A8" d="M195,98.2c0-0.5,0-0.9-0.1-1.3c-0.1-0.3-0.2-0.6-0.5-0.8c-0.3-0.2-0.7-0.3-1.2-0.4c-0.5-0.1-1.3-0.1-2.2-0.1
	c-0.9,0-1.7,0.1-2.3,0.2c-0.6,0.2-1,0.4-1.4,0.7c-0.3,0.3-0.6,0.7-0.7,1.1c-0.1,0.4-0.2,0.9-0.2,1.4v7.6h-2V94.2h2v2
	c0.1-0.2,0.2-0.5,0.4-0.7c0.2-0.3,0.5-0.5,0.9-0.7c0.4-0.2,0.9-0.4,1.5-0.6c0.6-0.2,1.4-0.2,2.3-0.2c1.1,0,1.9,0.1,2.6,0.3
	c0.7,0.2,1.2,0.5,1.6,0.8c0.4,0.4,0.6,0.8,0.7,1.4c0.1,0.5,0.2,1.2,0.2,1.9L195,98.2L195,98.2z"/>
<path fill="#ABA8A8" d="M203.1,106.5h2.1V94.2h-2.1V106.5z M203.1,92.1h2.1v-2h-2.1V92.1z"/>
<path fill="#ABA8A8" d="M225.3,106.5v-6.8c0-0.8-0.1-1.4-0.2-1.9c-0.1-0.5-0.3-1-0.7-1.3c-0.3-0.3-0.8-0.6-1.5-0.7
	c-0.6-0.1-1.5-0.2-2.5-0.2c-1.1,0-2,0.1-2.7,0.2c-0.7,0.2-1.3,0.4-1.7,0.7c-0.4,0.3-0.7,0.7-0.8,1.1c-0.2,0.4-0.2,0.9-0.2,1.4v7.5
	h-2V94.2h2v2c0.2-0.3,0.4-0.7,0.7-0.9c0.3-0.2,0.6-0.5,0.9-0.7s0.7-0.3,1.1-0.4c0.4-0.1,0.8-0.2,1.2-0.3c0.4-0.1,0.8-0.1,1.2-0.1
	c0.4,0,0.7,0,1.1,0c0.9,0,1.7,0.1,2.4,0.2c0.7,0.2,1.2,0.3,1.7,0.5c0.5,0.2,0.8,0.5,1.1,0.8c0.3,0.3,0.5,0.7,0.7,1.1
	c0.2,0.4,0.2,0.9,0.3,1.5s0.1,1.1,0.1,1.7l0,6.8L225.3,106.5L225.3,106.5z"/>
<path fill="#ABA8A8" d="M241.7,95.6c-0.8,0-1.5,0-2.1,0.1s-1.1,0.1-1.5,0.3c-0.4,0.1-0.7,0.3-1,0.5c-0.2,0.2-0.4,0.5-0.6,0.9
	c-0.1,0.4-0.2,0.8-0.3,1.3c0,0.5-0.1,1.1-0.1,1.8c0,0.7,0,1.3,0.1,1.8c0.1,0.5,0.2,0.9,0.3,1.3c0.1,0.4,0.3,0.7,0.6,0.9
	c0.2,0.2,0.6,0.4,1,0.5c0.4,0.1,0.9,0.2,1.5,0.3c0.6,0,1.3,0.1,2.1,0.1c0.7,0,1.3,0,1.8,0c0.5,0,1-0.1,1.4-0.2
	c0.4-0.1,0.7-0.3,1-0.5c0.3-0.2,0.5-0.5,0.7-0.8c0.2-0.4,0.3-0.8,0.4-1.3c0.1-0.5,0.1-1.1,0.1-1.9c0-0.7,0-1.4-0.1-1.9
	c-0.1-0.5-0.2-1-0.4-1.3c-0.2-0.3-0.4-0.6-0.7-0.8c-0.3-0.2-0.6-0.4-1-0.5c-0.4-0.1-0.9-0.2-1.4-0.2C243,95.6,242.4,95.6,241.7,95.6
	 M249.2,104.8c0,1.2-0.1,2.2-0.4,3c-0.3,0.8-0.7,1.4-1.3,1.9c-0.6,0.5-1.4,0.8-2.3,1c-1,0.2-2.1,0.3-3.5,0.3c-1.3,0-2.4-0.1-3.2-0.2
	c-0.9-0.1-1.6-0.3-2.1-0.5c-0.5-0.3-0.9-0.6-1.1-1c-0.2-0.4-0.3-0.9-0.3-1.4h2c0,0.3,0.1,0.5,0.2,0.7c0.2,0.2,0.4,0.3,0.8,0.4
	c0.4,0.1,0.9,0.2,1.5,0.2c0.6,0,1.4,0.1,2.3,0.1c1,0,1.9,0,2.6-0.1c0.7-0.1,1.3-0.2,1.7-0.5c0.4-0.3,0.7-0.7,0.9-1.3
	c0.2-0.6,0.3-1.3,0.3-2.3c-0.1,0.2-0.2,0.4-0.5,0.6c-0.2,0.2-0.5,0.4-1,0.6c-0.4,0.2-1,0.3-1.6,0.4c-0.7,0.1-1.5,0.2-2.4,0.2
	c-1.4,0-2.5-0.1-3.5-0.3c-1-0.2-1.7-0.6-2.3-1.1c-0.6-0.5-1-1.1-1.3-2c-0.3-0.8-0.4-1.9-0.4-3.1c0-1.3,0.1-2.4,0.4-3.2
	c0.3-0.8,0.7-1.5,1.3-2c0.6-0.5,1.4-0.8,2.3-1c1-0.2,2.1-0.3,3.5-0.3c1,0,1.8,0.1,2.4,0.2c0.7,0.1,1.2,0.2,1.6,0.4
	c0.4,0.2,0.7,0.3,1,0.5c0.2,0.2,0.4,0.3,0.5,0.5v-1.1h2L249.2,104.8L249.2,104.8z"/>
</svg>
