<svg xmlns="http://www.w3.org/2000/svg" viewBox="0 0 178.76 76.92"><defs><style>.cls-1{fill:#2d4697;}.cls-1,.cls-2{fill-rule:evenodd;}.cls-2{fill:#e4003a;}</style></defs><title>Ресурс 2</title><g id="Слой_2" data-name="Слой 2"><g id="Слой_1-2" data-name="Слой 1"><path class="cls-1" d="M56.38,26.62A2.35,2.35,0,1,1,54,24.27a2.35,2.35,0,0,1,2.35,2.35Zm119.2,47.17a3.3,3.3,0,0,1-5,0,5.59,5.59,0,0,1,0-6,3.3,3.3,0,0,1,5,0,5.59,5.59,0,0,1,0,6Zm1.69-7.42a6,6,0,0,0-8.41,0,7.33,7.33,0,0,0,0,8.83,6,6,0,0,0,8.41,0,7.29,7.29,0,0,0,0-8.83Zm-13.51-1.56a1.25,1.25,0,0,0-1.07.68l-3.36,5.43-3.43-5.41a1.31,1.31,0,0,0-1.12-.7,1,1,0,0,0-.75.29,1.22,1.22,0,0,0-.28.86v9.68c0,.74.34,1.11,1,1.11s1-.37,1-1.11V69l2.41,3.77a1.11,1.11,0,0,0,2,0l2.37-3.83v6.72a1.16,1.16,0,0,0,.29.8,1.06,1.06,0,0,0,.81.31,1,1,0,0,0,.81-.31,1.15,1.15,0,0,0,.28-.8v-9.7a1.23,1.23,0,0,0-.26-.81,1,1,0,0,0-.76-.32Zm-12.85,0H142.8a1.09,1.09,0,0,0-.75.26.92.92,0,0,0-.29.72.94.94,0,0,0,.29.71,1,1,0,0,0,.75.28h3v8.86a1.2,1.2,0,0,0,.28.8,1.06,1.06,0,0,0,.82.31,1,1,0,0,0,.81-.31,1.15,1.15,0,0,0,.28-.8V66.78h3a1.05,1.05,0,0,0,.78-.28.93.93,0,0,0,.28-.71.89.89,0,0,0-.29-.72,1.09,1.09,0,0,0-.77-.26ZM139.85,75.64v-9.7c0-.75-.36-1.13-1-1.13a1.31,1.31,0,0,0-1.05.61l-5.4,7.47v-7a1.19,1.19,0,0,0-.28-.81,1.2,1.2,0,0,0-1.63,0,1.24,1.24,0,0,0-.28.81v9.7a1.18,1.18,0,0,0,.28.82,1,1,0,0,0,.77.29,1.32,1.32,0,0,0,1-.63l5.43-7.42v6.94a1.15,1.15,0,0,0,.29.79,1.07,1.07,0,0,0,.83.32,1,1,0,0,0,.8-.31,1.2,1.2,0,0,0,.28-.8Zm-16.39-9.85a.92.92,0,0,0-.29-.72,1.12,1.12,0,0,0-.77-.26h-8.11a1.09,1.09,0,0,0-.75.26.89.89,0,0,0-.29.72.93.93,0,0,0,.28.71,1,1,0,0,0,.76.28h3v8.86a1.2,1.2,0,0,0,.28.8,1.06,1.06,0,0,0,.82.31,1,1,0,0,0,.81-.31,1.15,1.15,0,0,0,.28-.8V66.78h3a1,1,0,0,0,.77-.28.94.94,0,0,0,.29-.71Zm-12.06,9h-4.87V71.6h3.74a1.09,1.09,0,0,0,.78-.27,1,1,0,0,0,.28-.72.89.89,0,0,0-.28-.72,1.13,1.13,0,0,0-.78-.26h-3.74V66.78h4.7a1.07,1.07,0,0,0,.76-.27.93.93,0,0,0,.29-.71,1,1,0,0,0-.29-.72,1.07,1.07,0,0,0-.76-.27h-5.78a1.06,1.06,0,0,0-.82.32,1.14,1.14,0,0,0-.29.81v9.68a1.13,1.13,0,0,0,.3.81,1.1,1.1,0,0,0,.83.32h5.93a1.05,1.05,0,0,0,.76-.27.9.9,0,0,0,.29-.7,1,1,0,0,0-.29-.73,1.05,1.05,0,0,0-.76-.27Zm-9-9a.91.91,0,0,0-.28-.72,1.13,1.13,0,0,0-.78-.26H93.25a1.09,1.09,0,0,0-.75.26.92.92,0,0,0-.29.72.94.94,0,0,0,.29.71,1,1,0,0,0,.75.28h3v8.86a1.16,1.16,0,0,0,.29.8,1.21,1.21,0,0,0,1.62,0,1.15,1.15,0,0,0,.28-.8V66.78h3a1.05,1.05,0,0,0,.78-.28.93.93,0,0,0,.28-.71Zm-13.17-1a1.32,1.32,0,0,0-1,.61l-5.39,7.47v-7a1.2,1.2,0,0,0-.29-.81,1.2,1.2,0,0,0-1.63,0,1.24,1.24,0,0,0-.28.81v9.7a1.18,1.18,0,0,0,.28.82,1,1,0,0,0,.77.29,1.32,1.32,0,0,0,1-.63l5.44-7.42v6.94a1.14,1.14,0,0,0,.28.79,1.07,1.07,0,0,0,.83.32,1,1,0,0,0,.8-.31,1.15,1.15,0,0,0,.28-.8v-9.7c0-.75-.35-1.13-1-1.13ZM76.7,74.23a4.77,4.77,0,0,1-2.4.72,3,3,0,0,1-2.4-1.11,4.63,4.63,0,0,1-1-3.08,4.78,4.78,0,0,1,.89-3c1-1.23,2.52-1.47,4.63-.66.71.27,1.18.16,1.39-.31a1,1,0,0,0-.44-1.33,5.57,5.57,0,0,0-3.2-.8,5.18,5.18,0,0,0-4.09,1.67,6.53,6.53,0,0,0-1.47,4.47A6.76,6.76,0,0,0,70,75.26a5.1,5.1,0,0,0,4.11,1.66,5.81,5.81,0,0,0,3.53-1,1.4,1.4,0,0,0,.55-.78.84.84,0,0,0-.14-.75c-.3-.44-.78-.49-1.39-.14ZM61,66.75a11.28,11.28,0,0,1,1.42-.09c1.57,0,2.34.64,2.34,2s-.81,2.1-2.46,2.1a11.1,11.1,0,0,1-1.3-.06V66.75Zm6,1.82a3.46,3.46,0,0,0-1.23-2.92,5.48,5.48,0,0,0-3.35-.93,13.68,13.68,0,0,0-2.65.23,1.15,1.15,0,0,0-1,1.26v9.43a1.15,1.15,0,0,0,.28.8,1,1,0,0,0,.81.31,1.06,1.06,0,0,0,.81-.31,1.16,1.16,0,0,0,.29-.8V72.57a10.27,10.27,0,0,0,1.42.08,5.22,5.22,0,0,0,3.34-1,3.67,3.67,0,0,0,1.29-3.05Zm-10.7,7.91a.9.9,0,0,0,.29-.7,1,1,0,0,0-.29-.73,1.05,1.05,0,0,0-.76-.27H50.72V71.6h3.74a1.09,1.09,0,0,0,.78-.27,1,1,0,0,0,.29-.72.93.93,0,0,0-.29-.72,1.13,1.13,0,0,0-.78-.26H50.72V66.78h4.7a1.05,1.05,0,0,0,.76-.27.93.93,0,0,0,.29-.71,1,1,0,0,0-.29-.72,1.05,1.05,0,0,0-.76-.27H49.64a1.06,1.06,0,0,0-.82.32,1.18,1.18,0,0,0-.29.81v9.68a1.13,1.13,0,0,0,.3.81,1.1,1.1,0,0,0,.83.32h5.93a1.05,1.05,0,0,0,.76-.27ZM43.08,74.59a3.5,3.5,0,0,1-1.87.41,17.55,17.55,0,0,1-1.92-.09V71.48h1.9c1.68,0,2.5.57,2.5,1.75a1.53,1.53,0,0,1-.61,1.36ZM41,69.8H39.29V66.65c.52-.05,1-.07,1.51-.07,1.56,0,2.32.49,2.32,1.52s-.7,1.71-2.15,1.7Zm3,.56a2.68,2.68,0,0,0,1-1,2.9,2.9,0,0,0,.43-1.51c0-2.1-1.48-3.17-4.38-3.17a16.44,16.44,0,0,0-2.77.21,1.12,1.12,0,0,0-1,1.22v9.33a1.06,1.06,0,0,0,1,1.17,20.31,20.31,0,0,0,2.92.19c3.19,0,4.81-1.25,4.81-3.7a2.82,2.82,0,0,0-.58-1.78,3,3,0,0,0-1.43-1ZM25.44,76.75a1.32,1.32,0,0,0,1-.63l5.44-7.42v6.94a1.14,1.14,0,0,0,.28.79,1.07,1.07,0,0,0,.83.32,1,1,0,0,0,.8-.31,1.15,1.15,0,0,0,.28-.8v-9.7c0-.75-.35-1.13-1-1.13a1.32,1.32,0,0,0-1.05.61l-5.39,7.47v-7a1.2,1.2,0,0,0-.29-.81,1.2,1.2,0,0,0-1.63,0,1.24,1.24,0,0,0-.28.81v9.7a1.18,1.18,0,0,0,.28.82,1,1,0,0,0,.77.29Zm-12.74,0a1,1,0,0,0,.8-.31,1.16,1.16,0,0,0,.29-.8v-4h5.3v4a1.16,1.16,0,0,0,.29.8,1.2,1.2,0,0,0,1.61,0,1.11,1.11,0,0,0,.29-.8v-9.7a1.14,1.14,0,0,0-.29-.81,1.17,1.17,0,0,0-1.61,0,1.18,1.18,0,0,0-.29.81v3.73h-5.3V65.94a1.14,1.14,0,0,0-.29-.81,1,1,0,0,0-.8-.32,1.06,1.06,0,0,0-.82.32,1.24,1.24,0,0,0-.28.81v9.7a1.2,1.2,0,0,0,.28.8,1.06,1.06,0,0,0,.82.31ZM9.48,66.43a1.39,1.39,0,0,0,.1-1.07.86.86,0,0,0-.52-.46c-.63-.23-1.12.07-1.46.88L5.26,71.45,2,65.66a1.51,1.51,0,0,0-.69-.72.93.93,0,0,0-.87,0,.92.92,0,0,0-.48.75,1.64,1.64,0,0,0,.26,1l4,6.89a3.37,3.37,0,0,1-.55,1,.89.89,0,0,1-.69.33,1.66,1.66,0,0,1-.33,0,2.45,2.45,0,0,1-.37-.11L2,74.68c-.6-.19-1,0-1.2.49a1.06,1.06,0,0,0,.63,1.4,3.48,3.48,0,0,0,1.67.35A2.39,2.39,0,0,0,5,76.05a11.15,11.15,0,0,0,1.55-2.74l2.94-6.88Zm126.71-60a1.37,1.37,0,1,1-1.37-1.37,1.37,1.37,0,0,1,1.37,1.37Zm-10.09-5A1.38,1.38,0,1,1,124.72,0a1.37,1.37,0,0,1,1.38,1.37ZM95.8,6.42a1.37,1.37,0,1,1-1.37-1.37A1.37,1.37,0,0,1,95.8,6.42Zm31.27,15.15a2.35,2.35,0,1,1-2.35-2.35,2.35,2.35,0,0,1,2.35,2.35Zm-1,10.1a1.38,1.38,0,1,1-1.38-1.37,1.38,1.38,0,0,1,1.38,1.37Zm-8-15.15A3.52,3.52,0,1,1,114.62,13a3.52,3.52,0,0,1,3.52,3.52Zm10.1-5A3.52,3.52,0,1,1,124.72,8a3.52,3.52,0,0,1,3.52,3.52ZM116,36.72a1.38,1.38,0,1,1-1.37-1.38A1.38,1.38,0,0,1,116,36.72Zm20.19-20.2a1.37,1.37,0,1,1-1.37-1.37,1.37,1.37,0,0,1,1.37,1.37ZM75.6,6.42a1.37,1.37,0,1,1-1.37-1.37A1.37,1.37,0,0,1,75.6,6.42Zm-20.2,0A1.37,1.37,0,1,1,54,5.05,1.37,1.37,0,0,1,55.4,6.42ZM85.63,41.77a1.37,1.37,0,1,1-1.37-1.38,1.38,1.38,0,0,1,1.37,1.38ZM65.5,1.37A1.37,1.37,0,1,1,64.13,0,1.37,1.37,0,0,1,65.5,1.37Zm0,30.23a1.37,1.37,0,1,1-1.37-1.38A1.37,1.37,0,0,1,65.5,31.6Zm-20.19-10a1.38,1.38,0,1,1-1.38-1.37,1.37,1.37,0,0,1,1.38,1.37Zm0,10.1a1.38,1.38,0,1,1-1.38-1.37,1.38,1.38,0,0,1,1.38,1.37Zm22.34-10.1a3.52,3.52,0,1,1-3.52-3.52,3.53,3.53,0,0,1,3.52,3.52Zm8.93,15.15a2.35,2.35,0,1,1-2.35-2.35,2.35,2.35,0,0,1,2.35,2.35Zm10.1-25.25a2.35,2.35,0,1,1-2.35-2.35,2.36,2.36,0,0,1,2.35,2.35ZM117,26.62a2.35,2.35,0,1,1-2.34-2.35A2.34,2.34,0,0,1,117,26.62Zm0-20.2a2.35,2.35,0,1,1-2.35-2.35A2.35,2.35,0,0,1,117,6.42Zm-8.92,5.05A3.52,3.52,0,1,1,104.53,8a3.53,3.53,0,0,1,3.52,3.52ZM86.68,31.67a2.35,2.35,0,1,1-2.35-2.35,2.35,2.35,0,0,1,2.35,2.35ZM98,16.52A3.52,3.52,0,1,1,94.43,13,3.53,3.53,0,0,1,98,16.52Zm10.1,5.05a3.52,3.52,0,1,1-3.52-3.52,3.53,3.53,0,0,1,3.52,3.52Zm-1.18,10.1a2.35,2.35,0,1,1-2.34-2.35,2.34,2.34,0,0,1,2.34,2.35Zm-10.1,5a2.35,2.35,0,1,1-2.34-2.35,2.34,2.34,0,0,1,2.34,2.35ZM98,26.62a3.52,3.52,0,1,1-3.52-3.52A3.53,3.53,0,0,1,98,26.62Zm-20.2,0a3.52,3.52,0,1,1-3.52-3.52,3.53,3.53,0,0,1,3.52,3.52Zm10.1-5.05a3.52,3.52,0,1,1-3.52-3.52,3.53,3.53,0,0,1,3.52,3.52Zm-10.1-5.05A3.52,3.52,0,1,1,74.23,13a3.53,3.53,0,0,1,3.52,3.52Zm-10.1-5A3.52,3.52,0,1,1,64.13,8a3.53,3.53,0,0,1,3.52,3.52Z"/><path class="cls-2" d="M57.55,16.52A3.52,3.52,0,1,1,54,13a3.52,3.52,0,0,1,3.52,3.52Z"/></g></g></svg>