<svg xmlns:xlink="http://www.w3.org/1999/xlink" xmlns="http://www.w3.org/2000/svg" viewBox="0 0 43.6 20.8" width="100%" height="100%">
	<path d="M4.2 9.2c-1-.1-1.4-.3-1.4-.7 0-.4.3-.7 1-.7s1 .3 1.1.8h2.6C7.3 6.7 5.8 6 3.7 6c-2 0-3.6.9-3.6 2.8 0 1.8 1 2.4 3.2 2.7 1.2.2 1.6.4 1.6.8s-.3.7-1 .7c-.8 0-1.1-.3-1.2-1H0c.1 1.9 1.5 2.9 3.9 2.9 2.3 0 3.8-.9 3.8-2.9 0-1.9-1.1-2.5-3.5-2.8m7 .3c.1-1 .7-1.6 1.6-1.6.9 0 1.4.6 1.5 1.6h-3.1zM12.8 6c-2.6 0-4.6 1.7-4.6 4.4v.1c0 2.8 1.9 4.3 4.6 4.3 2.6 0 4-1.1 4.3-3h-2.7c-.1.6-.5 1-1.5 1s-1.7-.6-1.8-1.8H17v-.8c.1-2.9-1.9-4.2-4.2-4.2zm20.1.2h-3.2l-2.3 3.5V3.3h-2.9v11.3h2.9v-3.5l2.3 3.5h3.2L30 10.4" fill="#000"></path><path d="M38.3 10.5c0 1.4-.7 2.2-1.6 2.2-1 0-1.6-.7-1.6-2.1v-.1c0-1.5.6-2.2 1.6-2.2s1.6.7 1.6 2.2zm-.1-4.3v1.2C37.7 6.5 37 6 35.7 6c-1.9 0-3.5 1.5-3.5 4.4v.1c0 2.9 1.6 4.3 3.5 4.3 1.2 0 2.1-.7 2.5-1.6v1.4h2.9V6.2h-2.9zM20.7 3.3h-2.9v8.5c0 1.6 1.3 2.9 2.9 2.9h2.9v-2.9h-2.4c-.3 0-.5-.2-.5-.5V9.1h2.9V6.2h-2.9V3.3z" fill="#000"></path><path d="M42.6 19h1V2h-1" fill="#4a00ff"></path>
</svg>