<svg xmlns:xlink="http://www.w3.org/1999/xlink" xmlns="http://www.w3.org/2000/svg" xml:space="preserve" style="enable-background:new 0 0 244 48.4;" viewbox="0 0 244 48.4" y="0px" x="0px" id="Layer_1" width="" height="" viewBox="0 0 244 48.400001525878906" preserveAspectRatio="xMidYMid meet">

<g>
	<g>
		<path d="M29.7,32.4c0,10.2,7.3,16,16.9,16c9.9,0,16.8-5.1,16.8-14.3c0-9-8.4-11.9-15.7-14.5c-3.8-1.3-6.4-2.9-6.4-5.9    c0-3.1,2.5-4.6,5.4-4.6c3.6,0,5.6,2.5,5.6,6.5h10.4c0-7.6-5.3-14.3-15.9-14.3C38.5,1.3,31,5.7,31,13.9c0,9.1,6.9,11.7,15.2,14.7    c3.9,1.5,7,2.7,7,6.3c0,3.1-2.6,5.3-5.9,5.3c-4.2,0-7.2-2.9-7.2-7.7L29.7,32.4z M70.2,47.3h9.5V31.8c0-4.7,2-7.8,6-7.8    c4.1,0,5.4,3.1,5.4,7.5v15.8h9.5V29c0-4.4-0.6-7.5-2.5-9.8c-1.7-2.2-4.4-3.5-8.4-3.5c-4.7,0-8.3,2-10,5.2V2.5h-9.5V47.3z M107,6.2    c0,3.4,2.7,6.2,6.3,6.2c3.6,0,6.3-2.8,6.3-6.2c0-3.5-2.8-6.2-6.3-6.2C109.8,0,107,2.7,107,6.2 M108.4,47.3h9.8V16.4h-9.8V47.3z     M142.7,29.1c-5.2-1.7-7.9-2.1-7.9-4.4c0-1.9,1.7-2.8,3.7-2.8c2.7,0,4,1.5,4,4h9.6c0-5.9-4.3-10.4-13.3-10.4    c-8.3,0-13.6,3-13.6,9.4c0,6,4.4,7.4,9.5,9c5.8,1.9,8.3,2.2,8.3,4.6c0,2-1.7,2.9-4,2.9c-2.9,0-4.9-1.3-4.9-4.5h-9.6    c0,7.1,5.4,11.1,14.2,11.1c7.7,0,13.9-2.6,13.9-9.9C152.6,32.2,148.1,30.7,142.7,29.1L142.7,29.1z M159.2,47.3h9.5V31.8    c0-4.7,2-7.8,6-7.8c4.1,0,5.4,3.1,5.4,7.5v15.8h9.5V29c0-4.4-0.6-7.5-2.5-9.8c-1.7-2.2-4.4-3.5-8.4-3.5c-4.7,0-8.3,2-10,5.2V2.5    h-9.5V47.3z M228.3,16.4h-11.6l-9.5,13v-27h-9.8v44.8h9.8V34.4l9.5,12.9h11.6l-12-15.4L228.3,16.4z M231.4,6.2    c0,3.4,2.8,6.2,6.3,6.2c3.6,0,6.3-2.8,6.3-6.2c0-3.5-2.8-6.2-6.3-6.2C234.1,0,231.4,2.7,231.4,6.2 M232.8,47.3h9.8V16.4h-9.8V47.3    z" class="st0" style="fill: #597491;"></path>
	</g>
	<rect height="30.8" width="9.8" class="st1" y="16.4" x="232.8" style="fill: #0A0C0D;"></rect>
	<g>
		<path d="M231.4,6.2c0,3.4,2.8,6.2,6.3,6.2c3.6,0,6.3-2.8,6.3-6.2c0-3.5-2.8-6.2-6.3-6.2C234.1,0,231.4,2.7,231.4,6.2" class="st1" style="fill: #0A0C0D;"></path>
	</g>
	<polygon points="197.4,2.5 197.4,47.3 207.1,47.3 207.1,34.4 216.6,47.3 228.3,47.3 216.3,31.9 228.3,16.4 216.7,16.4    207.1,29.5 207.1,2.5  " class="st1" style="fill: #0A0C0D;"></polygon>
	<g>
		<path d="M159.2,47.3h9.5V31.8c0-4.7,2-7.8,6-7.8c4.1,0,5.4,3.1,5.4,7.5v15.8h9.5V29c0-4.4-0.6-7.5-2.5-9.9    c-1.7-2.2-4.4-3.5-8.4-3.5c-4.7,0-8.3,2-10,5.2V2.5h-9.5V47.3z" class="st1" style="fill: #0A0C0D;"></path>
		<path d="M142.7,29.1c-5.2-1.7-7.9-2.1-7.9-4.4c0-1.9,1.7-2.8,3.7-2.8c2.7,0,4,1.5,4,4h9.7c0-5.9-4.3-10.4-13.3-10.4    c-8.3,0-13.6,3-13.6,9.4c0,5.9,4.4,7.4,9.5,9c5.8,1.9,8.3,2.2,8.3,4.6c0,2-1.7,2.9-4,2.9c-2.9,0-4.9-1.3-4.9-4.5h-9.6    c0,7.1,5.4,11.1,14.2,11.1c7.7,0,13.9-2.6,13.9-9.9C152.6,32.2,148.1,30.7,142.7,29.1L142.7,29.1z" class="st1" style="fill: #0A0C0D;"></path>
	</g>
	<rect height="30.8" width="9.8" class="st1" y="16.4" x="108.4" style="fill: #0A0C0D;"></rect>
	<g>
		<path d="M107,6.2c0,3.4,2.7,6.2,6.3,6.2c3.6,0,6.3-2.8,6.3-6.2c0-3.5-2.8-6.2-6.3-6.2C109.8,0,107,2.7,107,6.2" class="st1" style="fill: #0A0C0D;"></path>
		<path d="M70.2,47.3h9.5V31.8c0-4.7,2-7.8,6-7.8c4.1,0,5.4,3.1,5.4,7.5v15.8h9.5V29c0-4.4-0.6-7.5-2.5-9.9    c-1.7-2.2-4.4-3.5-8.4-3.5c-4.7,0-8.3,2-10,5.2V2.5h-9.5V47.3z" class="st1" style="fill: #0A0C0D;"></path>
		<path d="M29.7,32.4c0,10.2,7.3,16,16.9,16c9.9,0,16.8-5.1,16.8-14.3c0-9-8.4-11.9-15.7-14.5c-3.8-1.3-6.4-2.9-6.4-5.9    c0-3.1,2.5-4.6,5.4-4.6c3.6,0,5.6,2.5,5.6,6.5h10.4c0-7.6-5.3-14.3-15.9-14.3C38.5,1.3,31,5.7,31,13.9c0,9.1,6.9,11.7,15.2,14.7    c3.9,1.5,7,2.7,7,6.3c0,3.1-2.6,5.3-5.9,5.3c-4.2,0-7.2-2.9-7.2-7.7L29.7,32.4z" class="st1" style="fill: #0A0C0D;"></path>
	</g>
	<polygon points="25.2,12.5 23.3,6.9 15,10.3 15.7,1.4 15.7,1.2 9.5,1.2 10.2,10.3 2,6.9 1.9,6.9 0,12.5 8.5,14.7    2.5,22.2 2.4,22.3 7.5,25.9 12.6,17.5 17.6,25.7 17.7,25.9 22.7,22.3 16.6,14.7 25,12.6  " class="st2" style="fill: #0082FF;"></polygon>
</g>
</svg>