<svg xmlns="http://www.w3.org/2000/svg" viewBox="-37 1916 496 418"><defs><style>.cls-1,.cls-4{fill:none}.cls-1,.cls-2{stroke:#49caf4;stroke-width:4px}.cls-2{fill:#fff}.cls-3{stroke:none}</style></defs><g id="Symbol_3_1" data-name="Symbol 3 – 1" transform="translate(-327 455)"><g id="Symbol_2_1" data-name="Symbol 2 – 1"><path id="Path_4" data-name="Path 4" class="cls-1" d="M-34 1743h339.07v354" transform="translate(356.93 -275)"/><path id="Path_9" data-name="Path 9" class="cls-1" d="M80.924 1743H-34v354" transform="translate(696 -245)"/><path id="Path_8" data-name="Path 8" class="cls-1" d="M-34 1743h361.283v180" transform="translate(334.717 -58)"/><path id="Path_13" data-name="Path 13" class="cls-1" d="M78.622 1743H-34v137" transform="translate(696 -33)"/><path id="Path_5" data-name="Path 5" class="cls-1" d="M-57.07 1806H282v324" transform="translate(380 -287)"/><path id="Path_10" data-name="Path 10" class="cls-1" d="M55.552 1806H-57.07v290.333" transform="translate(719.07 -256)"/><path id="Path_6" data-name="Path 6" class="cls-1" d="M-57.07 1806h252v301" transform="translate(467.07 -228)"/><path id="Path_11" data-name="Path 11" class="cls-1" d="M55.552 1806H-57.07v244" transform="translate(719.07 -204)"/><path id="Path_7" data-name="Path 7" class="cls-1" d="M-57.07 1806h118v234" transform="translate(601.07 -175)"/><path id="Path_12" data-name="Path 12" class="cls-1" d="M55.552 1806H-57.07v191" transform="translate(719.07 -153)"/></g><g id="Symbol_1_1" data-name="Symbol 1 – 1"><g id="Ellipse_19" data-name="Ellipse 19" class="cls-2" transform="translate(314 1461)"><circle class="cls-3" cx="7" cy="7" r="7"/><circle class="cls-4" cx="7" cy="7" r="5"/></g><g id="Ellipse_20" data-name="Ellipse 20" class="cls-2" transform="translate(316 1513)"><circle class="cls-3" cx="7" cy="7" r="7"/><circle class="cls-4" cx="7" cy="7" r="5"/></g><g id="Ellipse_24" data-name="Ellipse 24" class="cls-2" transform="translate(768 1491)"><circle class="cls-3" cx="7" cy="7" r="7"/><circle class="cls-4" cx="7" cy="7" r="5"/></g><g id="Ellipse_27" data-name="Ellipse 27" class="cls-2" transform="translate(768 1595)"><circle class="cls-3" cx="7" cy="7" r="7"/><circle class="cls-4" cx="7" cy="7" r="5"/></g><g id="Ellipse_25" data-name="Ellipse 25" class="cls-2" transform="translate(768 1540)"><circle class="cls-3" cx="7" cy="7" r="7"/><circle class="cls-4" cx="7" cy="7" r="5"/></g><g id="Ellipse_26" data-name="Ellipse 26" class="cls-2" transform="translate(768 1645)"><circle class="cls-3" cx="7" cy="7" r="7"/><circle class="cls-4" cx="7" cy="7" r="5"/></g><g id="Ellipse_28" data-name="Ellipse 28" class="cls-2" transform="translate(772 1702)"><circle class="cls-3" cx="7" cy="7" r="7"/><circle class="cls-4" cx="7" cy="7" r="5"/></g><g id="Ellipse_21" data-name="Ellipse 21" class="cls-2" transform="translate(399 1571)"><circle class="cls-3" cx="7" cy="7" r="7"/><circle class="cls-4" cx="7" cy="7" r="5"/></g><g id="Ellipse_22" data-name="Ellipse 22" class="cls-2" transform="translate(533 1624)"><circle class="cls-3" cx="7" cy="7" r="7"/><circle class="cls-4" cx="7" cy="7" r="5"/></g><g id="Ellipse_23" data-name="Ellipse 23" class="cls-2" transform="translate(290 1679)"><circle class="cls-3" cx="7" cy="7" r="7"/><circle class="cls-4" cx="7" cy="7" r="5"/></g></g></g></svg>