<svg xmlns="http://www.w3.org/2000/svg" viewBox="2026 2209 129 749.667"><defs><style>.cls-1,.cls-4{fill:none}.cls-1,.cls-2{stroke:#49caf4;stroke-width:4px}.cls-2{fill:#fff}.cls-3{stroke:none}</style></defs><g id="Symbol_6_1" data-name="Symbol 6 – 1" transform="translate(1890 455)"><g id="Symbol_4_1" data-name="Symbol 4 – 1"><path id="Path_14" data-name="Path 14" class="cls-1" d="M62.177 1806H-57.07v191" transform="translate(195.07 291)"/><path id="Path_21" data-name="Path 21" class="cls-1" d="M62.177 1806H-57.07v191" transform="translate(195.07 363)"/><path id="Path_22" data-name="Path 22" class="cls-1" d="M62.177 1806H-57.07v191" transform="translate(195.07 432)"/><path id="Path_23" data-name="Path 23" class="cls-1" d="M62.177 1806H-57.07v191" transform="translate(195.07 498)"/><path id="Path_24" data-name="Path 24" class="cls-1" d="M55.552 1806H-57.07v132.667" transform="translate(195.07 565)"/><path id="Path_20" data-name="Path 20" class="cls-1" d="M55.552 1806H-57.07v191" transform="translate(195.07 92)"/><path id="Path_16" data-name="Path 16" class="cls-1" d="M55.552 1806H-57.07v191" transform="translate(195.07 228)"/><path id="Path_19" data-name="Path 19" class="cls-1" d="M55.552 1806H-57.07v191" transform="translate(195.07 24)"/><path id="Path_17" data-name="Path 17" class="cls-1" d="M55.552 1806H-57.07v191" transform="translate(195.07 163)"/><path id="Path_18" data-name="Path 18" class="cls-1" d="M55.552 1806H-57.07v191" transform="translate(195.07 -45)"/></g><g id="Symbol_5_1" data-name="Symbol 5 – 1"><g id="Ellipse_29" data-name="Ellipse 29" class="cls-2" transform="translate(250 1754)"><circle class="cls-3" cx="7" cy="7" r="7"/><circle class="cls-4" cx="7" cy="7" r="5"/></g><g id="Ellipse_33" data-name="Ellipse 33" class="cls-2" transform="translate(250 2027)"><circle class="cls-3" cx="7" cy="7" r="7"/><circle class="cls-4" cx="7" cy="7" r="5"/></g><g id="Ellipse_31" data-name="Ellipse 31" class="cls-2" transform="translate(250 1892)"><circle class="cls-3" cx="7" cy="7" r="7"/><circle class="cls-4" cx="7" cy="7" r="5"/></g><g id="Ellipse_35" data-name="Ellipse 35" class="cls-2" transform="translate(250 2163)"><circle class="cls-3" cx="7" cy="7" r="7"/><circle class="cls-4" cx="7" cy="7" r="5"/></g><g id="Ellipse_30" data-name="Ellipse 30" class="cls-2" transform="translate(250 1823)"><circle class="cls-3" cx="7" cy="7" r="7"/><circle class="cls-4" cx="7" cy="7" r="5"/></g><g id="Ellipse_34" data-name="Ellipse 34" class="cls-2" transform="translate(250 2091)"><circle class="cls-3" cx="7" cy="7" r="7"/><circle class="cls-4" cx="7" cy="7" r="5"/></g><g id="Ellipse_32" data-name="Ellipse 32" class="cls-2" transform="translate(250 1961)"><circle class="cls-3" cx="7" cy="7" r="7"/><circle class="cls-4" cx="7" cy="7" r="5"/></g><g id="Ellipse_36" data-name="Ellipse 36" class="cls-2" transform="translate(250 2232)"><circle class="cls-3" cx="7" cy="7" r="7"/><circle class="cls-4" cx="7" cy="7" r="5"/></g><g id="Ellipse_37" data-name="Ellipse 37" class="cls-2" transform="translate(249.177 2297)"><ellipse class="cls-3" cx="7.412" cy="7" rx="7.412" ry="7"/><ellipse class="cls-4" cx="7.412" cy="7" rx="5.412" ry="5"/></g><g id="Ellipse_38" data-name="Ellipse 38" class="cls-2" transform="translate(251 2363)"><circle class="cls-3" cx="7" cy="7" r="7"/><circle class="cls-4" cx="7" cy="7" r="5"/></g></g></g></svg>