<svg xmlns="http://www.w3.org/2000/svg" baseProfile="tiny" viewBox="-150 -12.5 400 125"><path fill="#1D1D1D" d="M-66.4 38.8v31.8c0 .8-.6 1.4-1.4 1.4H-148c-.8 0-1.4-.6-1.4-1.4V-9.6c0-.8.6-1.4 1.4-1.4h31.8V5.6h-16.6v49.8H-83V38.8h16.6z"/><path fill="#4AC2F1" d="M-66.4 38.8h-48.4c-.8 0-1.4-.6-1.4-1.4V-11c.4 0 .7.2 1 .4L-100 4.6c.2.2.4.6.4 1v16.6H-83c.4 0 .7.2 1 .4l15.2 15.2c.2.2.4.6.4 1"/><path fill="#1D1D1D" d="M-20.2 34.9v-5.4h-6.4c-2.7 0-4.9 2.5-4.9 5.7v18.2c0 6.5 4.9 11.6 11 11.6h12.3v6.9h-17c-10.2 0-18.5-8.3-18.5-18.5V34.9c0-6.9 5.6-12.4 12.4-12.4H-17c4.9 0 9 4 9 9v3.4h-12.2zm41.7 37H13C6.1 71.9.6 66.4.6 59.5V34.9h11.2v24.7c0 3.1 2.1 5.4 4.6 5.4h1.5c2.5 0 4.6-2.3 4.6-5.4V34.9h11.2v24.7c.2 6.9-5.3 12.3-12.2 12.3m41.7-24.7c0-3.1-2.1-5.4-4.6-5.4h-6.2V65h6.2c2.5 0 4.6-2.2 4.6-5.4V47.2zm-1.1 24.7H41.2V22.5h11.2v12.4h9.7c6.9 0 12.4 5.5 12.4 12.4v12.4c-.1 6.8-5.6 12.2-12.4 12.2m42.4-24.7c0-3.1-2.1-5.4-4.6-5.4h-2.3c-2.5 0-4.6 2.3-4.6 5.4v2.3h11.6l-.1-2.3zm-11.6 9.3v3.1c0 3.2 2.1 5.4 4.6 5.4h16.1v6.9H94.1c-6.9 0-12.4-5.5-12.4-12.4V47.2c0-6.9 5.5-12.4 12.4-12.4h9.3c6.9 0 12.4 5.5 12.4 12.4v9.3H92.9z"/><path fill="#4AC2F1" d="M124.2 71.9V22.5h12.1V65h13.4v6.9zm32-37h11.2V72h-11.2V34.9zm0-12.4h11.2v10h-11.2v-10zm41.1 49.4V47.2c0-3.1-2.1-5.4-4.6-5.4h-6.2v30.1h-11.2v-37h20.9c6.9 0 12.4 5.5 12.4 12.4V72h-11.3zm40.9-24.7c0-3.1-2.1-5.4-4.6-5.4h-2.3c-2.5 0-4.6 2.3-4.6 5.4v2.3h11.6c-.1 0-.1-2.3-.1-2.3zm-11.6 9.3v3.1c0 3.2 2.1 5.4 4.6 5.4h16.1v6.9h-19.6c-6.9 0-12.4-5.5-12.4-12.4V47.2c0-6.9 5.5-12.4 12.4-12.4h9.3c6.9 0 12.4 5.5 12.4 12.4v9.3h-22.8z"/><path fill="#ABA8A8" d="M-125.3 90.1l-9.6 14.4-9.6-14.4h-3.3v16.4h2.1v-15l9.9 15h2l9.8-14.8v14.8h2V90.1zm18.7 15c.9 0 1.7 0 2.3-.1.6-.1 1.1-.2 1.5-.4.4-.2.6-.4.8-.6.2-.2.2-.5.2-.9 0-.3-.1-.6-.3-.9-.2-.2-.5-.4-.9-.6-.4-.2-1-.2-1.7-.3-.7-.1-1.6-.1-2.6-.1s-1.9 0-2.5.1c-.6 0-1.1.1-1.5.2-.3.1-.6.3-.7.6-.1.2-.2.6-.2 1s.1.8.2 1c.1.3.4.5.8.6.4.1.9.2 1.7.3.7.1 1.7.1 2.9.1m4.7-.3c0 .1-.2.3-.5.6-.2.3-.5.5-.9.7-.3.2-.8.3-1.4.5-.6.1-1.4.2-2.3.2-1.3 0-2.4-.1-3.3-.2s-1.7-.3-2.2-.6c-.6-.3-1-.6-1.3-1.1-.3-.4-.4-.9-.4-1.5s.1-1.1.2-1.6c.1-.4.4-.8.6-1.1.3-.3.6-.5 1-.7.4-.2.9-.3 1.4-.4.5-.1 1.1-.1 1.7-.2h1.9c1 0 1.8 0 2.4.1.7.1 1.2.2 1.6.3.4.1.7.3.9.4.2.1.4.2.5.4 0-.8 0-1.5-.1-2-.1-.6-.2-1-.3-1.4-.2-.4-.3-.7-.6-.9-.2-.2-.5-.4-.9-.5-.3-.1-.7-.2-1.2-.2s-1-.1-1.6-.1c-.9 0-1.7 0-2.4.1-.6.1-1.1.1-1.5.3-.4.2-.6.3-.8.6-.1.2-.2.5-.2.9h-2.1c0-.7.1-1.2.3-1.6.2-.5.6-.8 1.1-1.1.5-.3 1.2-.5 2.1-.6.9-.1 2-.2 3.2-.2 1.3 0 2.3.1 3.2.3.9.2 1.6.6 2.1 1.1.5.5.9 1.2 1.2 2.1.2.9.4 2 .4 3.3v5.8h-2v-1.7zm19.8-6.6c0-.5 0-.9-.1-1.3-.1-.3-.2-.6-.5-.8-.3-.2-.7-.3-1.2-.4-.5-.1-1.3-.1-2.2-.1-.9 0-1.7.1-2.2.2-.6.2-1 .4-1.4.7-.3.3-.6.7-.7 1.1-.1.4-.2.9-.2 1.3v7.6h-2V94.2h2v2c.1-.2.2-.5.4-.7.2-.3.5-.5.9-.7.4-.2.9-.4 1.5-.6.6-.2 1.4-.2 2.3-.2 1.1 0 2 .1 2.6.3.7.2 1.2.5 1.6.8.4.4.6.8.8 1.4.1.5.2 1.2.2 1.9l-1.8-.2zm7.5-8.1h2v9h.7l7.6-4.9h3l-8.7 5.7 9.1 6.6H-64l-7.9-5.9h-.7v5.9h-2zm25.6 5.5h-1.8c-.5 0-1 .1-1.4.2-.4.1-.7.2-1 .4-.3.2-.5.4-.7.6-.2.2-.3.6-.4 1.1-.1.4-.1 1-.1 1.6h10.3c0-.8-.1-1.5-.3-2-.2-.5-.5-.9-.8-1.2-.4-.3-.9-.5-1.5-.6-.7-.1-1.5-.1-2.3-.1m0 11.2c-1.4 0-2.5-.1-3.5-.3-1-.2-1.7-.5-2.3-1-.6-.5-1-1.1-1.3-1.9-.3-.8-.4-1.8-.4-2.9 0-1.4.1-2.5.4-3.3.3-.9.7-1.6 1.3-2.1.6-.5 1.4-.9 2.3-1.1 1-.2 2.1-.3 3.5-.3 1 0 1.8.1 2.5.2s1.3.3 1.8.6.9.6 1.2 1c.3.4.6.8.7 1.2.2.4.3.9.4 1.5.1.6.1 1.2.1 1.8l-.2.7h-12.1c0 .9.1 1.7.3 2.3.2.6.5 1 .9 1.3.4.2 1 .4 1.7.5.7.1 1.6.1 2.6.1.9 0 1.7 0 2.3-.1.6-.1 1.1-.2 1.5-.3.4-.2.6-.3.8-.6.2-.2.2-.6.2-1h2c0 .7-.1 1.2-.3 1.7-.2.5-.6.8-1.1 1.1-.5.3-1.2.5-2.1.6-.8.2-1.9.3-3.2.3m25.9-5.7c0 1.1-.1 1.9-.2 2.6-.2.7-.5 1.3-.9 1.7-.4.4-.9.7-1.6.9-.7.2-1.5.3-2.4.3-.9 0-1.7-.1-2.4-.2-.6-.2-1.1-.4-1.5-.7-.4-.3-.7-.8-.9-1.4-.2-.6-.2-1.3-.2-2.1V96h-2.5v-1.7h2.5V91h2v3.3h7.7V96h-7.7v6.2c0 .7.1 1.2.2 1.6.1.4.3.7.5.8s.5.3.9.3h2.5c.3 0 .6-.1.9-.1.3-.1.5-.2.7-.3.2-.2.3-.4.4-.7.1-.3.2-.6.2-1.1 0-.4.1-1 .1-1.6h1.7zm7.9 5.4h2V94.2h-2v12.3zm0-14.4h2v-2h-2v2zm22.1 14.4v-6.8c0-.8-.1-1.4-.2-1.9s-.3-1-.7-1.3c-.3-.3-.8-.5-1.5-.7S3 95.6 2 95.6c-1.1 0-2 .1-2.7.2-.7.2-1.3.4-1.7.7-.4.3-.7.7-.8 1.1-.1.4-.1.9-.1 1.4v7.5h-2.1V94.2h2v2c.2-.3.4-.7.7-.9.3-.2.6-.5.9-.7.4-.2.7-.3 1.1-.4l1.2-.3c.4 0 .8-.1 1.2-.1h1c.9 0 1.7.1 2.4.2s1.2.3 1.7.5.9.5 1.2.9c.3.3.5.7.7 1.1.2.4.2.9.3 1.4s0 1.1 0 1.8v6.8H6.9zm16.4-10.9c-.8 0-1.5 0-2.1.1s-1.1.1-1.5.3c-.4.1-.7.3-1 .5-.2.2-.4.5-.6.9-.1.4-.2.8-.3 1.3 0 .5-.1 1.1-.1 1.8s0 1.3.1 1.8.1.9.3 1.3c.1.3.3.7.6.9.2.2.6.4 1 .5.4.1.9.2 1.5.3.6 0 1.3.1 2.1.1h1.8c.5 0 1-.1 1.4-.2.4-.1.7-.3 1-.5.3-.2.5-.5.7-.8.2-.4.3-.8.4-1.3.1-.5.1-1.1.1-1.9 0-.7 0-1.4-.1-1.9s-.2-1-.4-1.3c-.2-.3-.4-.6-.7-.8-.3-.2-.6-.4-1-.5-.4-.1-.9-.2-1.4-.2-.5-.4-1.1-.4-1.8-.4m7.6 9.2c0 1.2-.1 2.2-.4 3-.3.8-.7 1.4-1.3 1.9-.6.5-1.4.8-2.3 1-1 .2-2.1.3-3.5.3-1.3 0-2.4-.1-3.2-.2-.9-.1-1.6-.3-2.1-.5-.5-.3-.9-.6-1.1-1-.2-.4-.3-.9-.3-1.4h2c0 .3.1.5.2.7.2.2.4.3.8.4.4.1.9.2 1.5.2s1.4.1 2.3.1c1 0 1.9 0 2.6-.1.7-.1 1.3-.2 1.7-.5.4-.3.7-.7.9-1.3.2-.6.3-1.3.3-2.3-.1.2-.3.4-.5.6-.2.2-.5.4-1 .6s-1 .3-1.6.4c-.7.1-1.5.2-2.4.2-1.4 0-2.5-.1-3.5-.3-.9-.2-1.7-.5-2.3-1-.6-.5-1.1-1.1-1.3-2-.3-.8-.4-1.9-.4-3.1 0-1.3.1-2.4.4-3.2.3-.8.7-1.5 1.3-2 .6-.5 1.4-.8 2.3-1 1-.2 2.1-.3 3.5-.3 1 0 1.8.1 2.4.2.7.1 1.2.2 1.6.4.4.2.7.3 1 .5.2.2.4.3.5.5v-1.1h2.1l-.2 10.3zm12.9 1.7V90.1h16.4v1.7H45.8v5.5h13.7V99H45.8v5.8h14.4v1.7zm35.2 0v-6.8c0-.8-.1-1.4-.2-1.9s-.3-1-.7-1.3c-.3-.3-.8-.6-1.5-.7s-1.5-.2-2.5-.2c-1.1 0-2 .1-2.7.2-.7.2-1.3.4-1.7.7-.4.3-.7.7-.8 1.1-.2.4-.2.9-.2 1.4v7.5h-2V94.2h2v2c.2-.3.4-.7.7-.9.3-.2.6-.5.9-.7s.7-.3 1.1-.4l1.2-.3c.4-.1.8-.1 1.2-.1h1c.9 0 1.7.1 2.4.2s1.2.3 1.7.5.8.5 1.1.8c.3.3.5.7.6 1.1.2.4.3.9.3 1.5.1.6.1 1.1.1 1.8v6.9h-2zm16.3-10.9c-.8 0-1.5 0-2.1.1-.6.1-1.1.1-1.5.3-.4.1-.7.3-1 .5-.2.2-.4.5-.6.9-.1.4-.2.8-.3 1.3-.1.5-.1 1.1-.1 1.8s0 1.3.1 1.8.1.9.3 1.3c.2.4.3.7.6.9.2.2.6.4 1 .5.4.1.9.2 1.5.3.6 0 1.3.1 2.1.1h1.8c.5 0 1-.1 1.4-.2.4-.1.8-.3 1-.5.3-.2.5-.5.7-.8.2-.4.3-.8.4-1.3.1-.5.1-1.1.1-1.9 0-.7 0-1.4-.1-1.9s-.2-1-.4-1.3c-.2-.3-.4-.6-.7-.8-.3-.2-.6-.4-1-.5s-.9-.2-1.4-.2c-.5-.4-1.1-.4-1.8-.4m7.6 9.2c0 1.2-.1 2.2-.4 3-.3.8-.7 1.4-1.3 1.9-.6.5-1.4.8-2.3 1-1 .2-2.1.3-3.5.3-1.3 0-2.4-.1-3.2-.2-.9-.1-1.6-.3-2.1-.5-.5-.3-.9-.6-1.1-1-.2-.4-.4-.9-.4-1.4h2.1c0 .3.1.5.2.7.1.2.4.3.8.4s.9.2 1.5.2 1.4.1 2.3.1c1 0 1.9 0 2.6-.1.7-.1 1.3-.2 1.7-.5.4-.3.7-.7.9-1.3.2-.6.3-1.3.3-2.3-.1.2-.3.4-.5.6-.2.2-.5.4-1 .6-.4.2-1 .3-1.6.4-.7.1-1.5.2-2.4.2-1.4 0-2.5-.1-3.5-.3-1-.2-1.7-.6-2.3-1.1-.6-.5-1-1.1-1.3-2-.3-.8-.4-1.9-.4-3.1 0-1.3.1-2.4.4-3.2.3-.8.7-1.5 1.3-2 .6-.5 1.4-.8 2.3-1s2.1-.3 3.5-.3c1 0 1.8.1 2.4.2.7.1 1.2.2 1.6.4.4.2.7.3 1 .5.2.2.4.3.5.5v-1.1h2.1l-.2 10.4zm7.8 1.7h2V94.2h-2v12.3zm0-14.4h2v-2h-2v2zm22.1 14.4v-6.8c0-.8-.1-1.4-.2-1.9s-.3-1-.7-1.3c-.3-.3-.8-.6-1.5-.7s-1.5-.2-2.5-.2c-1.1 0-2 .1-2.7.2-.7.2-1.3.4-1.7.7-.4.3-.7.7-.8 1.1-.2.4-.2.9-.2 1.4v7.5h-2V94.2h2v2c.2-.3.4-.7.7-.9.3-.2.6-.5.9-.7.4-.2.7-.3 1.1-.4l1.2-.3c.4-.1.8-.1 1.2-.1h1.1c.9 0 1.7.1 2.4.2s1.2.3 1.7.5.8.5 1.1.8c.3.3.5.7.7 1.1.2.4.2.9.3 1.5.1.5.1 1.1.1 1.7v6.8l-2.2.1zm16.4-10.9h-1.8c-.5 0-1 .1-1.4.2-.4.1-.7.2-1 .4-.3.2-.5.4-.7.6-.2.2-.3.6-.4 1.1-.1.4-.1 1-.1 1.6H154c0-.8-.1-1.5-.3-2-.2-.5-.5-.9-.8-1.2-.4-.3-.9-.5-1.5-.6-.6-.1-1.3-.1-2.2-.1m0 11.2c-1.4 0-2.5-.1-3.5-.3-1-.2-1.7-.5-2.3-1-.6-.5-1-1.1-1.3-1.9-.3-.8-.4-1.8-.4-2.9 0-1.4.1-2.5.4-3.3.3-.9.7-1.6 1.3-2.1.6-.5 1.4-.9 2.3-1.1 1-.2 2.1-.3 3.5-.3 1 0 1.8.1 2.5.2s1.3.3 1.8.6.9.6 1.2 1c.3.4.6.8.7 1.2.2.4.3.9.4 1.5.1.6.1 1.2.1 1.8l-.2.7h-12.2c0 .9.1 1.7.3 2.3.2.6.5 1 .9 1.3.4.3 1 .4 1.7.5.7.1 1.6.1 2.6.1.9 0 1.7 0 2.3-.1.6-.1 1.1-.2 1.5-.3.4-.2.6-.3.8-.6.2-.2.2-.6.2-1h2c0 .7-.1 1.2-.3 1.7-.2.5-.6.9-1.1 1.1-.5.3-1.2.5-2.1.6-.7.2-1.8.3-3.1.3m21.2-11.2h-1.8c-.5 0-1 .1-1.4.2-.4.1-.7.2-1 .4-.3.2-.5.4-.7.6-.2.2-.3.6-.4 1.1-.1.4-.1 1-.1 1.6h10.3c0-.8-.1-1.5-.3-2-.2-.5-.5-.9-.8-1.2-.4-.3-.9-.5-1.5-.6-.7-.1-1.5-.1-2.3-.1m0 11.2c-1.4 0-2.5-.1-3.5-.3-1-.2-1.7-.5-2.3-1-.6-.5-1-1.1-1.3-1.9-.3-.8-.4-1.8-.4-2.9 0-1.4.1-2.5.4-3.3.3-.9.7-1.6 1.3-2.1.6-.5 1.4-.9 2.3-1.1 1-.2 2.1-.3 3.5-.3 1 0 1.8.1 2.5.2s1.3.3 1.8.6.9.6 1.2 1c.3.4.6.8.7 1.2.2.4.3.9.4 1.5.1.6.1 1.2.1 1.8l-.2.7h-12.1c0 .9.1 1.7.3 2.3.2.6.5 1 .9 1.3.4.3 1 .4 1.7.5.7.1 1.5.1 2.6.1.9 0 1.7 0 2.3-.1.6-.1 1.1-.2 1.5-.3.4-.2.6-.3.8-.6.2-.2.2-.6.2-1h2.1c0 .7-.1 1.2-.3 1.7-.2.5-.6.9-1.1 1.1-.5.3-1.2.5-2.1.6-.9.2-2 .3-3.3.3m24.6-8.6c0-.5 0-.9-.1-1.3-.1-.3-.2-.6-.5-.8-.3-.2-.7-.3-1.2-.4-.5-.1-1.3-.1-2.2-.1-.9 0-1.7.1-2.3.2-.6.2-1 .4-1.4.7-.3.3-.6.7-.7 1.1-.1.4-.2.9-.2 1.4v7.6h-2V94.2h2v2c.1-.2.2-.5.4-.7.2-.3.5-.5.9-.7.4-.2.9-.4 1.5-.6.6-.2 1.4-.2 2.3-.2 1.1 0 1.9.1 2.6.3.7.2 1.2.5 1.6.8.4.4.6.8.7 1.4.1.5.2 1.2.2 1.9l-1.6-.2zm8.1 8.3h2.1V94.2h-2.1v12.3zm0-14.4h2.1v-2h-2.1v2zm22.2 14.4v-6.8c0-.8-.1-1.4-.2-1.9s-.3-1-.7-1.3c-.3-.3-.8-.6-1.5-.7-.6-.1-1.5-.2-2.5-.2-1.1 0-2 .1-2.7.2-.7.2-1.3.4-1.7.7-.4.3-.7.7-.8 1.1-.2.4-.2.9-.2 1.4v7.5h-2V94.2h2v2c.2-.3.4-.7.7-.9.3-.2.6-.5.9-.7s.7-.3 1.1-.4l1.2-.3c.4-.1.8-.1 1.2-.1h1.1c.9 0 1.7.1 2.4.2.7.2 1.2.3 1.7.5s.8.5 1.1.8c.3.3.5.7.7 1.1.2.4.2.9.3 1.5s.1 1.1.1 1.7v6.8l-2.2.1zm16.4-10.9c-.8 0-1.5 0-2.1.1s-1.1.1-1.5.3c-.4.1-.7.3-1 .5-.2.2-.4.5-.6.9-.1.4-.2.8-.3 1.3 0 .5-.1 1.1-.1 1.8s0 1.3.1 1.8.2.9.3 1.3c.1.4.3.7.6.9.2.2.6.4 1 .5.4.1.9.2 1.5.3.6 0 1.3.1 2.1.1h1.8c.5 0 1-.1 1.4-.2.4-.1.7-.3 1-.5.3-.2.5-.5.7-.8.2-.4.3-.8.4-1.3.1-.5.1-1.1.1-1.9 0-.7 0-1.4-.1-1.9s-.2-1-.4-1.3c-.2-.3-.4-.6-.7-.8-.3-.2-.6-.4-1-.5-.4-.1-.9-.2-1.4-.2-.5-.4-1.1-.4-1.8-.4m7.5 9.2c0 1.2-.1 2.2-.4 3-.3.8-.7 1.4-1.3 1.9-.6.5-1.4.8-2.3 1-1 .2-2.1.3-3.5.3-1.3 0-2.4-.1-3.2-.2-.9-.1-1.6-.3-2.1-.5-.5-.3-.9-.6-1.1-1-.2-.4-.3-.9-.3-1.4h2c0 .3.1.5.2.7.2.2.4.3.8.4.4.1.9.2 1.5.2s1.4.1 2.3.1c1 0 1.9 0 2.6-.1.7-.1 1.3-.2 1.7-.5.4-.3.7-.7.9-1.3.2-.6.3-1.3.3-2.3-.1.2-.2.4-.5.6-.2.2-.5.4-1 .6-.4.2-1 .3-1.6.4-.7.1-1.5.2-2.4.2-1.4 0-2.5-.1-3.5-.3-1-.2-1.7-.6-2.3-1.1-.6-.5-1-1.1-1.3-2-.3-.8-.4-1.9-.4-3.1 0-1.3.1-2.4.4-3.2.3-.8.7-1.5 1.3-2 .6-.5 1.4-.8 2.3-1 1-.2 2.1-.3 3.5-.3 1 0 1.8.1 2.4.2.7.1 1.2.2 1.6.4.4.2.7.3 1 .5.2.2.4.3.5.5v-1.1h2l-.1 10.4z"/></svg>