<svg xmlns="http://www.w3.org/2000/svg" width="203.7" height="24"><path d="M57.53 11.61a.19.19 0 0 0-.17-.17L46.09.17a.66.66 0 0 0-.43-.17H34.4a.32.32 0 0 0-.26.09.19.19 0 0 0-.14.17l-5.2 5.2-5.23-5.2c-.09-.09-.17-.09-.17-.17S23.22 0 23.13 0H11.87a.32.32 0 0 0-.26.09.19.19 0 0 0-.17.17L.17 11.52A.66.66 0 0 0 0 12v11.22a.68.68 0 0 0 .69.69H12a.66.66 0 0 0 .43-.17l5.2-5.2 5.2 5.2c.09.09.17.09.17.17s.17.09.26.09h11.22a.32.32 0 0 0 .26-.09.19.19 0 0 0 .17-.17l5.2-5.2 5.2 5.2c.09.09.17.09.17.17s.17.09.26.09H57a.68.68 0 0 0 .69-.69V12c-.16-.22-.16-.3-.16-.39zm-2.25-.43H35v-10h10.31zm-21.66-9v8.06l-4.07-4.09zm-5.37 4.49l4.51 4.51H12.39v-10H22.7zM11.52 22.44H1.13V12.13l10-10v9.7a.68.68 0 0 0 .69.69h9.7L17 17.07zm10.83-9v8.06l-4.07-4.07zm1.39 9v-10H44l-10 10zm21.23-9v8.06l-4.07-4.08zm1.3 9v-10h10v10zm28.07-13c2.17 4.33 3.29 6.5 4.33 8.66h.17c1.47-3 3.21-6.24 4.59-9.44l4-7.88c.09-.09.17-.17.26-.17h1.39a.23.23 0 0 1 .26.26v21.92a.23.23 0 0 1-.26.26h-1a.23.23 0 0 1-.26-.26V3.12h-.17C86.82 5 85.95 6.76 85 8.58l-5.55 10.91c-.09.09-.17.17-.26.17h-1.13c-.09 0-.17-.09-.26-.17L71.57 7.28c-.69-1.39-1.3-2.86-2-4.25h-.17V22.7a.23.23 0 0 1-.26.26h-.87a.23.23 0 0 1-.27-.26V.87a.23.23 0 0 1 .26-.26h1.3c.09 0 .17.09.26.17zm38.3 2.56c0 5.72-2 11.26-9.44 11.26-7.1 0-9.1-4.59-9.1-11.26 0-6.93 2.51-11.7 9.36-11.7 7.36.05 9.18 5.59 9.18 11.7zm-17.16 0c0 6.84 2.51 10 7.71 10 5 0 7.88-3.12 7.88-10 0-6.15-1.91-10.4-7.71-10.4S95.48 5.89 95.48 12zM117.57.61h1a.23.23 0 0 1 .26.26v20.62a.23.23 0 0 0 .26.26h12.61a.23.23 0 0 1 .3.25v.78a.23.23 0 0 1-.26.26h-14a.23.23 0 0 1-.26-.26V.87c-.17-.18-.08-.26.09-.26zm18.37 0h.87a.23.23 0 0 1 .26.26v21.92a.23.23 0 0 1-.26.26h-.87a.23.23 0 0 1-.26-.26V.87a.28.28 0 0 1 .26-.26zm8.32 2.6v19.58a.23.23 0 0 1-.26.21h-.87a.23.23 0 0 1-.26-.26V.87a.23.23 0 0 1 .26-.26h1c.09 0 .17 0 .17.09l8 11.09c2 2.86 4.07 5.81 6.06 8.66h.17V.87a.23.23 0 0 1 .26-.26h1a.23.23 0 0 1 .26.26v21.92a.23.23 0 0 1-.26.26h-1c-.09 0-.17 0-.17-.09L148.25 8.75c-1.3-1.73-2.51-3.64-3.73-5.55zm38.9 8.79c0 5.72-2 11.26-9.44 11.26-7.1 0-9.1-4.59-9.1-11.26 0-6.93 2.51-11.7 9.36-11.7 7.28.05 9.18 5.59 9.18 11.7zM166 12c0 6.84 2.51 10 7.71 10 5 0 7.88-3.12 7.88-10 0-6.15-1.91-10.4-7.71-10.4S166 5.89 166 12zm36.14 5.16c0-3.12-2.08-4.68-6.5-5.29-4.16-.52-7.8-1.21-7.8-5.46 0-3 2-6.06 7.8-6.06 3.9 0 7.62 1.73 7.62 6a1.69 1.69 0 0 1-.09.61h-1a.23.23 0 0 1-.26-.26c-.17-2.6-2-4.85-6.24-4.85S189.4 4 189.4 6.32c0 3.29 2.69 3.64 7.19 4.33 4.07.61 7.1 2.25 7.1 6.32 0 3.21-2.25 6.41-8.4 6.41-4.94 0-8.14-2.17-8.14-6.41v-.43a.23.23 0 0 1 .26-.26h.87a.23.23 0 0 1 .26.26c.09 2.77 1.56 5.55 6.76 5.55s6.84-2.68 6.84-4.93z" fill="#27bdbe"/></svg>